<svg width="174" height="48" viewBox="0 0 174 48" fill="none" xmlns="http://www.w3.org/2000/svg">
<g filter="url(#filter0_d_37_31)">
<path d="M7.08636 38.6545H0L3.27359 18.9269H10.2252C12.2086 18.9269 13.855 19.3315 15.1644 20.1407C16.4803 20.9499 17.4078 22.1089 17.947 23.6179C18.4862 25.1206 18.5824 26.9156 18.2358 29.0027C17.902 31.0191 17.2377 32.7497 16.2428 34.1947C15.2479 35.633 13.9737 36.7377 12.4204 37.5083C10.867 38.2724 9.08902 38.6545 7.08636 38.6545ZM4.76595 35.0807H7.32705C8.56588 35.0807 9.65066 34.8495 10.5814 34.3873C11.5185 33.9249 12.2856 33.2121 12.8825 32.2489C13.4859 31.2855 13.9127 30.0526 14.1631 28.5499C14.4006 27.1243 14.3845 25.9683 14.1149 25.0823C13.8518 24.1895 13.3415 23.5378 12.5841 23.1267C11.8266 22.7094 10.8317 22.5007 9.59931 22.5007H6.85529L4.76595 35.0807Z" fill="black"/>
<path d="M25.9289 23.5988C25.9609 22.7961 25.7266 22.1762 25.2261 21.7397C24.7317 21.3029 23.9839 21.0847 22.9827 21.0847C22.3023 21.0847 21.7117 21.1809 21.211 21.3737C20.7103 21.5598 20.3092 21.82 20.0075 22.1538C19.7122 22.4814 19.5293 22.8603 19.4587 23.2905C19.3881 23.6438 19.4105 23.9519 19.5261 24.2153C19.648 24.4785 19.8374 24.7065 20.0942 24.8992C20.3573 25.0854 20.6686 25.249 21.028 25.3904C21.3874 25.5252 21.7694 25.6409 22.1739 25.7371L23.8685 26.1609C24.6965 26.3538 25.4411 26.6106 26.1021 26.9317C26.7698 27.2527 27.3282 27.6477 27.7774 28.1165C28.2333 28.5853 28.5542 29.1375 28.7404 29.7733C28.9263 30.409 28.9522 31.1378 28.8173 31.9598C28.6118 33.1671 28.1337 34.2138 27.3826 35.1C26.6317 35.9799 25.6463 36.6638 24.4269 37.1518C23.2072 37.6335 21.7952 37.8742 20.1904 37.8742C18.5986 37.8742 17.2538 37.6303 16.1562 37.1423C15.0586 36.6542 14.2595 35.9318 13.7588 34.9748C13.2645 34.0116 13.1169 32.8204 13.3159 31.4012H17.3501C17.2795 32.0626 17.3758 32.6149 17.639 33.058C17.9085 33.4948 18.3097 33.8253 18.8425 34.0502C19.3752 34.2685 20.0011 34.3776 20.72 34.3776C21.4326 34.3776 22.0646 34.2748 22.6166 34.0695C23.1752 33.8639 23.6277 33.578 23.9744 33.212C24.3209 32.8461 24.5328 32.4254 24.6099 31.9503C24.6868 31.5072 24.6194 31.1346 24.4076 30.8329C24.1958 30.5311 23.8556 30.2742 23.387 30.0623C22.9248 29.8438 22.3504 29.6512 21.6634 29.4842L19.6031 28.9449C18.0112 28.5403 16.8077 27.9078 15.9925 27.0472C15.1773 26.1868 14.8853 25.0276 15.1164 23.5698C15.3218 22.3754 15.8192 21.332 16.6087 20.4393C17.4047 19.5402 18.406 18.8434 19.6127 18.349C20.8259 17.8481 22.1513 17.5976 23.5891 17.5976C25.0526 17.5976 26.2883 17.8513 27.296 18.3586C28.3038 18.8595 29.0388 19.5595 29.5008 20.4585C29.963 21.3576 30.1043 22.4043 29.9244 23.5988H25.9289Z" fill="black"/>
<path d="M11.0531 9.43885L11.6308 6H27.8254L27.2477 9.43885H21.2108L18.515 25.7276H14.3941L17.09 9.43885H11.0531Z" fill="black"/>
<path d="M4.60229 26.5752H11.3805L10.6828 29.9659H4.60229V26.5752Z" fill="black"/>
</g>
<path d="M45.5508 34V8.63477H58.9277C61.8574 8.63477 64.3418 9.13281 66.3809 10.1289C68.4316 11.125 69.9961 12.5664 71.0742 14.4531C72.1523 16.3398 72.6914 18.6074 72.6914 21.2559V21.291C72.6914 23.9629 72.1523 26.248 71.0742 28.1465C70.0078 30.0449 68.4492 31.498 66.3984 32.5059C64.3594 33.502 61.8691 34 58.9277 34H45.5508ZM49.2773 30.8008H58.6992C60.9141 30.8008 62.7715 30.4375 64.2715 29.7109C65.7832 28.9844 66.9258 27.918 67.6992 26.5117C68.4844 25.1055 68.877 23.3828 68.877 21.3438V21.3086C68.877 19.2695 68.4902 17.5469 67.7168 16.1406C66.9551 14.7227 65.8125 13.6504 64.2891 12.9238C62.7773 12.1973 60.9141 11.834 58.6992 11.834H49.2773V30.8008ZM75.944 34V15.6309H79.5299V34H75.944ZM77.737 12.6777C77.1276 12.6777 76.612 12.4785 76.1901 12.0801C75.7799 11.6699 75.5749 11.1777 75.5749 10.6035C75.5749 10.0176 75.7799 9.52539 76.1901 9.12695C76.612 8.72852 77.1276 8.5293 77.737 8.5293C78.3581 8.5293 78.8737 8.72852 79.2839 9.12695C79.694 9.52539 79.8991 10.0176 79.8991 10.6035C79.8991 11.1777 79.694 11.6699 79.2839 12.0801C78.8737 12.4785 78.3581 12.6777 77.737 12.6777ZM92.5911 34.4043C90.5286 34.4043 88.7708 34.1875 87.3177 33.7539C85.8646 33.3086 84.7279 32.6699 83.9076 31.8379C83.099 30.9941 82.6126 29.9805 82.4486 28.7969L82.431 28.6562H86.0169L86.0521 28.7969C86.2747 29.7344 86.931 30.4492 88.0208 30.9414C89.1107 31.4219 90.6576 31.6621 92.6615 31.6621C93.8568 31.6621 94.8646 31.5566 95.6849 31.3457C96.5169 31.123 97.1439 30.8066 97.5658 30.3965C97.9876 29.9746 98.1986 29.4707 98.1986 28.8848V28.8672C98.1986 28.1641 97.9232 27.6367 97.3724 27.2852C96.8333 26.9219 95.8783 26.6582 94.5072 26.4941L89.3743 25.9492C87.9681 25.7734 86.7904 25.4688 85.8411 25.0352C84.9036 24.6016 84.1947 24.0391 83.7142 23.3477C83.2454 22.6562 83.0111 21.8359 83.0111 20.8867V20.8691C83.0111 19.709 83.3626 18.707 84.0658 17.8633C84.7806 17.0195 85.8001 16.3691 87.1243 15.9121C88.4486 15.4551 90.0247 15.2266 91.8529 15.2266C93.7982 15.2266 95.4564 15.4551 96.8275 15.9121C98.2103 16.3574 99.2826 16.9902 100.044 17.8105C100.806 18.6309 101.234 19.6094 101.327 20.7461L101.345 20.9746H97.9525L97.9349 20.8691C97.7943 19.9785 97.1966 19.2754 96.1419 18.7598C95.0872 18.2441 93.6693 17.9863 91.888 17.9863C90.7513 17.9863 89.7904 18.0977 89.0052 18.3203C88.2318 18.5312 87.6458 18.8418 87.2474 19.252C86.849 19.6504 86.6497 20.1309 86.6497 20.6934V20.7109C86.6497 21.1562 86.7728 21.5371 87.0189 21.8535C87.2767 22.1699 87.6751 22.4277 88.2142 22.627C88.765 22.8262 89.4857 22.9844 90.3763 23.1016L95.5267 23.6465C97.7767 23.916 99.3939 24.4492 100.378 25.2461C101.363 26.043 101.855 27.1738 101.855 28.6387V28.6562C101.855 29.8398 101.486 30.8594 100.747 31.7148C100.009 32.5703 98.9486 33.2324 97.5658 33.7012C96.1829 34.1699 94.5247 34.4043 92.5911 34.4043ZM108.553 34V11.834H97.6543V8.63477H123.195V11.834H112.279V34H108.553ZM129.911 34.4043C127.602 34.4043 125.616 34.0293 123.952 33.2793C122.288 32.5293 121.01 31.4453 120.12 30.0273C119.229 28.6094 118.784 26.8926 118.784 24.877V24.8594C118.784 22.9141 119.235 21.2207 120.137 19.7793C121.051 18.3262 122.317 17.2012 123.934 16.4043C125.563 15.6074 127.467 15.2207 129.647 15.2441C131.85 15.2559 133.737 15.666 135.307 16.4746C136.889 17.2715 138.096 18.3906 138.928 19.832C139.772 21.2734 140.194 22.9609 140.194 24.8945V25.7559H120.594V23.1719H138.014L136.661 25.2637V24.2441C136.661 22.9902 136.374 21.9121 135.799 21.0098C135.237 20.0957 134.434 19.3926 133.391 18.9004C132.348 18.4082 131.1 18.1621 129.647 18.1621C128.124 18.1621 126.817 18.4023 125.727 18.8828C124.649 19.3633 123.823 20.0781 123.249 21.0273C122.674 21.9766 122.387 23.1543 122.387 24.5605V25.1406C122.387 26.6875 122.733 27.9238 123.424 28.8496C124.116 29.7754 125.036 30.4492 126.184 30.8711C127.344 31.2812 128.616 31.4863 129.999 31.4863C130.96 31.4863 131.862 31.3809 132.706 31.1699C133.549 30.959 134.282 30.6543 134.903 30.2559C135.524 29.8574 135.981 29.3652 136.274 28.7793L136.327 28.6387H139.895L139.842 28.8145C139.549 29.7285 139.092 30.5371 138.471 31.2402C137.85 31.9316 137.1 32.5117 136.221 32.9805C135.342 33.4492 134.37 33.8008 133.303 34.0352C132.237 34.2812 131.106 34.4043 129.911 34.4043ZM153.273 40.5742C151.398 40.5742 149.751 40.3691 148.333 39.959C146.915 39.5488 145.743 38.9629 144.818 38.2012C143.904 37.4512 143.253 36.5723 142.867 35.5645L142.814 35.3887H146.751L146.839 35.5293C147.308 36.1973 148.076 36.7188 149.142 37.0938C150.22 37.4805 151.597 37.6738 153.273 37.6738C155.699 37.6738 157.521 37.1992 158.74 36.25C159.958 35.3125 160.568 34.0059 160.568 32.3301V30.3965H160.497C159.993 31.1699 159.337 31.8438 158.529 32.418C157.72 32.9805 156.777 33.4199 155.699 33.7363C154.62 34.041 153.431 34.1934 152.13 34.1934C150.079 34.1934 148.298 33.7891 146.786 32.9805C145.275 32.1602 144.109 31.041 143.288 29.623C142.468 28.1934 142.058 26.5645 142.058 24.7363V24.7012C142.058 22.873 142.468 21.25 143.288 19.832C144.12 18.4023 145.292 17.2832 146.804 16.4746C148.316 15.6543 150.097 15.2441 152.148 15.2441C153.449 15.2441 154.632 15.4082 155.699 15.7363C156.777 16.0527 157.714 16.5039 158.511 17.0898C159.32 17.6758 159.982 18.3555 160.497 19.1289H160.568V15.6309H164.171V32.5234C164.171 34.1758 163.743 35.6055 162.888 36.8125C162.044 38.0195 160.808 38.9453 159.179 39.5898C157.562 40.2461 155.593 40.5742 153.273 40.5742ZM153.115 31.2578C154.603 31.2578 155.904 30.9883 157.017 30.4492C158.142 29.9102 159.009 29.1543 159.618 28.1816C160.24 27.1973 160.55 26.0488 160.55 24.7363V24.7012C160.55 23.4004 160.24 22.2637 159.618 21.291C159.009 20.3184 158.142 19.5625 157.017 19.0234C155.904 18.4727 154.603 18.1973 153.115 18.1973C151.603 18.1973 150.29 18.4609 149.177 18.9883C148.076 19.5156 147.226 20.2656 146.628 21.2383C146.031 22.1992 145.732 23.3535 145.732 24.7012V24.7363C145.732 26.084 146.031 27.25 146.628 28.2344C147.226 29.207 148.076 29.957 149.177 30.4844C150.29 31 151.603 31.2578 153.115 31.2578ZM169.814 34.2461C169.182 34.2461 168.648 34.0352 168.215 33.6133C167.793 33.1914 167.582 32.6758 167.582 32.0664C167.582 31.4453 167.793 30.9238 168.215 30.502C168.648 30.0801 169.182 29.8691 169.814 29.8691C170.436 29.8691 170.957 30.0801 171.379 30.502C171.812 30.9238 172.029 31.4453 172.029 32.0664C172.029 32.6758 171.812 33.1914 171.379 33.6133C170.957 34.0352 170.436 34.2461 169.814 34.2461Z" fill="black"/>
<defs>
<filter id="filter0_d_37_31" x="0" y="6" width="38" height="41.6545" filterUnits="userSpaceOnUse" color-interpolation-filters="sRGB">
<feFlood flood-opacity="0" result="BackgroundImageFix"/>
<feColorMatrix in="SourceAlpha" type="matrix" values="0 0 0 0 0 0 0 0 0 0 0 0 0 0 0 0 0 0 127 0" result="hardAlpha"/>
<feOffset dx="4" dy="5"/>
<feGaussianBlur stdDeviation="2"/>
<feComposite in2="hardAlpha" operator="out"/>
<feColorMatrix type="matrix" values="0 0 0 0 0 0 0 0 0 0 0 0 0 0 0 0 0 0 0.25 0"/>
<feBlend mode="normal" in2="BackgroundImageFix" result="effect1_dropShadow_37_31"/>
<feBlend mode="normal" in="SourceGraphic" in2="effect1_dropShadow_37_31" result="shape"/>
</filter>
</defs>
</svg>
