<svg width="38" height="42" viewBox="0 0 38 42" fill="none" xmlns="http://www.w3.org/2000/svg">
<g filter="url(#filter0_d_9_92)">
<path d="M7.08636 32.6545H0L3.27359 12.9269H10.2252C12.2086 12.9269 13.855 13.3315 15.1644 14.1407C16.4803 14.9499 17.4078 16.1089 17.947 17.6179C18.4862 19.1206 18.5824 20.9156 18.2358 23.0027C17.902 25.0191 17.2377 26.7497 16.2428 28.1947C15.2479 29.633 13.9737 30.7377 12.4204 31.5083C10.867 32.2724 9.08902 32.6545 7.08636 32.6545ZM4.76595 29.0807H7.32705C8.56588 29.0807 9.65066 28.8495 10.5814 28.3873C11.5185 27.9249 12.2856 27.2121 12.8825 26.2489C13.4859 25.2855 13.9127 24.0526 14.1631 22.5499C14.4006 21.1243 14.3845 19.9683 14.1149 19.0823C13.8518 18.1895 13.3415 17.5378 12.5841 17.1267C11.8266 16.7094 10.8317 16.5007 9.59931 16.5007H6.85529L4.76595 29.0807Z" fill="black"/>
<path d="M25.9289 17.5988C25.9609 16.7961 25.7266 16.1762 25.2261 15.7397C24.7317 15.3029 23.9839 15.0847 22.9827 15.0847C22.3023 15.0847 21.7117 15.1809 21.211 15.3737C20.7103 15.5598 20.3092 15.82 20.0075 16.1538C19.7122 16.4814 19.5293 16.8603 19.4587 17.2905C19.3881 17.6438 19.4105 17.9519 19.5261 18.2153C19.648 18.4785 19.8374 18.7065 20.0942 18.8992C20.3573 19.0854 20.6686 19.249 21.028 19.3904C21.3874 19.5252 21.7694 19.6409 22.1739 19.7371L23.8685 20.1609C24.6965 20.3538 25.4411 20.6106 26.1021 20.9317C26.7698 21.2527 27.3282 21.6477 27.7774 22.1165C28.2333 22.5853 28.5542 23.1375 28.7404 23.7733C28.9263 24.409 28.9522 25.1378 28.8173 25.9598C28.6118 27.1671 28.1337 28.2138 27.3826 29.1C26.6317 29.9799 25.6463 30.6638 24.4269 31.1518C23.2072 31.6335 21.7952 31.8742 20.1904 31.8742C18.5986 31.8742 17.2538 31.6303 16.1562 31.1423C15.0586 30.6542 14.2595 29.9318 13.7588 28.9748C13.2645 28.0116 13.1169 26.8204 13.3159 25.4012H17.3501C17.2795 26.0626 17.3758 26.6149 17.639 27.058C17.9085 27.4948 18.3097 27.8253 18.8425 28.0502C19.3752 28.2685 20.0011 28.3776 20.72 28.3776C21.4326 28.3776 22.0646 28.2748 22.6166 28.0695C23.1752 27.8639 23.6277 27.578 23.9744 27.212C24.3209 26.8461 24.5328 26.4254 24.6099 25.9503C24.6868 25.5072 24.6194 25.1346 24.4076 24.8329C24.1958 24.5311 23.8556 24.2742 23.387 24.0623C22.9248 23.8438 22.3504 23.6512 21.6634 23.4842L19.6031 22.9449C18.0112 22.5403 16.8077 21.9078 15.9925 21.0472C15.1773 20.1868 14.8853 19.0276 15.1164 17.5698C15.3218 16.3754 15.8192 15.332 16.6087 14.4393C17.4047 13.5402 18.406 12.8434 19.6127 12.349C20.8259 11.8481 22.1513 11.5976 23.5891 11.5976C25.0526 11.5976 26.2883 11.8513 27.296 12.3586C28.3038 12.8595 29.0388 13.5595 29.5008 14.4585C29.963 15.3576 30.1043 16.4043 29.9244 17.5988H25.9289Z" fill="black"/>
<path d="M11.0531 3.43885L11.6308 0H27.8254L27.2477 3.43885H21.2108L18.515 19.7276H14.3941L17.09 3.43885H11.0531Z" fill="black"/>
<path d="M4.60229 20.5752H11.3805L10.6828 23.9659H4.60229V20.5752Z" fill="black"/>
</g>
<defs>
<filter id="filter0_d_9_92" x="0" y="0" width="38" height="41.6545" filterUnits="userSpaceOnUse" color-interpolation-filters="sRGB">
<feFlood flood-opacity="0" result="BackgroundImageFix"/>
<feColorMatrix in="SourceAlpha" type="matrix" values="0 0 0 0 0 0 0 0 0 0 0 0 0 0 0 0 0 0 127 0" result="hardAlpha"/>
<feOffset dx="4" dy="5"/>
<feGaussianBlur stdDeviation="2"/>
<feComposite in2="hardAlpha" operator="out"/>
<feColorMatrix type="matrix" values="0 0 0 0 0 0 0 0 0 0 0 0 0 0 0 0 0 0 0.25 0"/>
<feBlend mode="normal" in2="BackgroundImageFix" result="effect1_dropShadow_9_92"/>
<feBlend mode="normal" in="SourceGraphic" in2="effect1_dropShadow_9_92" result="shape"/>
</filter>
</defs>
</svg>
